<?xml version="1.0" encoding="UTF-8" standalone="no"?>
<svg
   width="1024"
   height="1024"
   version="1.1"
   id="svg70"
   sodipodi:docname="On Air icon.svg"
   inkscape:version="1.2.2 (b0a84865, 2022-12-01)"
   xmlns:inkscape="http://www.inkscape.org/namespaces/inkscape"
   xmlns:sodipodi="http://sodipodi.sourceforge.net/DTD/sodipodi-0.dtd"
   xmlns:xlink="http://www.w3.org/1999/xlink"
   xmlns="http://www.w3.org/2000/svg"
   xmlns:svg="http://www.w3.org/2000/svg">
  <sodipodi:namedview
     id="namedview72"
     pagecolor="#ffffff"
     bordercolor="#000000"
     borderopacity="0.25"
     inkscape:showpageshadow="2"
     inkscape:pageopacity="0.0"
     inkscape:pagecheckerboard="0"
     inkscape:deskcolor="#d1d1d1"
     showgrid="false"
     inkscape:zoom="0.47584683"
     inkscape:cx="530.63294"
     inkscape:cy="549.54659"
     inkscape:window-width="1420"
     inkscape:window-height="891"
     inkscape:window-x="51"
     inkscape:window-y="37"
     inkscape:window-maximized="0"
     inkscape:current-layer="layer1" />
  <defs
     id="defs64">
    <linearGradient
       inkscape:collect="always"
       id="linearGradient4975">
      <stop
         style="stop-color:#efefef;stop-opacity:1;"
         offset="0"
         id="stop4971" />
      <stop
         style="stop-color:#e6e4b1;stop-opacity:1;"
         offset="1"
         id="stop4973" />
    </linearGradient>
    <filter
       id="blur_shadow"
       x="-0.034951456"
       y="-0.034951456"
       width="1.0699029"
       height="1.0699029">
      <feGaussianBlur
         stdDeviation="12"
         id="feGaussianBlur61" />
    </filter>
    <radialGradient
       inkscape:collect="always"
       xlink:href="#linearGradient4975"
       id="radialGradient4977"
       cx="507.66101"
       cy="512"
       fx="507.66101"
       fy="512"
       r="412"
       gradientUnits="userSpaceOnUse"
       gradientTransform="matrix(1.0320882,0,6.3650331e-7,1,-16.290265,2.5893454e-6)" />
    <filter
       style="color-interpolation-filters:sRGB;"
       inkscape:label="Drop Shadow"
       id="filter7074"
       x="-0.078737693"
       y="-0.080402006"
       width="1.1574754"
       height="1.160804">
      <feFlood
         flood-opacity="0.498039"
         flood-color="rgb(0,0,0)"
         result="flood"
         id="feFlood7064" />
      <feComposite
         in="flood"
         in2="SourceGraphic"
         operator="out"
         result="composite1"
         id="feComposite7066" />
      <feGaussianBlur
         in="composite1"
         stdDeviation="16.2287"
         result="blur"
         id="feGaussianBlur7068" />
      <feOffset
         dx="0"
         dy="0"
         result="offset"
         id="feOffset7070" />
      <feComposite
         in="offset"
         in2="SourceGraphic"
         operator="atop"
         result="composite2"
         id="feComposite7072" />
    </filter>
    <filter
       style="color-interpolation-filters:sRGB;"
       inkscape:label="Drop Shadow"
       id="filter7473"
       x="-0.079230584"
       y="-0.079230584"
       width="1.1584612"
       height="1.1584612">
      <feFlood
         flood-opacity="0.498039"
         flood-color="rgb(0,0,0)"
         result="flood"
         id="feFlood7463" />
      <feComposite
         in="flood"
         in2="SourceGraphic"
         operator="in"
         result="composite1"
         id="feComposite7465" />
      <feGaussianBlur
         in="composite1"
         stdDeviation="27.2025"
         result="blur"
         id="feGaussianBlur7467" />
      <feOffset
         dx="0"
         dy="0"
         result="offset"
         id="feOffset7469" />
      <feComposite
         in="SourceGraphic"
         in2="offset"
         operator="over"
         result="composite2"
         id="feComposite7471" />
    </filter>
    <mask
       maskUnits="userSpaceOnUse"
       id="mask7506">
      <path
         d="m 924,355.412 c 0,-9.782 0,-18.35 -0.056,-28.133 -0.049,-8.241 -0.144,-16.48 -0.368,-24.716 -0.484,-17.954 -1.543,-36.061 -4.736,-53.813 -3.238,-18.01 -8.526,-34.77 -16.859,-51.133 a 171.963,171.963 0 0 0 -31.661,-43.559 172.06,172.06 0 0 0 -43.574,-31.64 c -16.381,-8.335 -33.159,-13.621 -51.188,-16.858 -17.755,-3.188 -35.867,-4.245 -53.82,-4.73 -8.243,-0.223 -16.485,-0.317 -24.73,-0.368 -9.788,-0.06 -19.576,-0.055 -29.364,-0.055 L 553.997,100 h -84.999 l -111.637,0.407 c -9.807,0 -19.614,-0.005 -29.421,0.055 -8.262,0.051 -16.52,0.145 -24.778,0.368 -17.995,0.485 -36.148,1.543 -53.945,4.735 -18.053,3.236 -34.857,8.52 -51.259,16.849 a 172.405,172.405 0 0 0 -43.667,31.644 171.994,171.994 0 0 0 -31.718,43.551 c -8.356,16.372 -13.654,33.143 -16.9,51.162 -3.196,17.746 -4.255,35.846 -4.742,53.792 -0.222,8.237 -0.318,16.476 -0.368,24.716 -0.06,9.784 -0.563,21.937 -0.563,31.72 v 195.999 l 0.508,112.429 c 0,9.796 -0.004,19.592 0.055,29.388 0.05,8.252 0.146,16.502 0.369,24.751 0.486,17.976 1.547,36.109 4.746,53.886 3.245,18.032 8.542,34.818 16.891,51.201 a 172.24,172.24 0 0 0 31.722,43.619 172.444,172.444 0 0 0 43.659,31.684 c 16.412,8.346 33.224,13.639 51.288,16.88 17.789,3.193 35.936,4.252 53.924,4.737 8.258,0.223 16.517,0.318 24.779,0.368 9.807,0.059 19.613,0.059 29.42,0.059 h 310.283 c 9.788,0 19.576,0 29.364,-0.059 8.245,-0.05 16.487,-0.145 24.73,-0.368 17.96,-0.486 36.078,-1.546 53.841,-4.741 18.018,-3.241 34.788,-8.532 51.159,-16.873 a 172.004,172.004 0 0 0 43.582,-31.687 172.23,172.23 0 0 0 31.659,-43.612 c 8.337,-16.391 13.625,-33.184 16.865,-51.229 3.19,-17.77 4.248,-35.896 4.733,-53.865 0.223,-8.25 0.318,-16.5 0.367,-24.751 C 924,687.019 924,677.223 924,667.427 Z"
         fill="#ffffff"
         id="path7508" />
    </mask>
    <filter
       inkscape:label="Drop Shadow"
       inkscape:menu="Image Effects"
       inkscape:menu-tooltip="Adds a small scale graininess"
       style="color-interpolation-filters:sRGB;"
       id="filter14156"
       x="-0.094986699"
       y="-0.094986699"
       width="1.1899734"
       height="1.1899734">
      <feTurbulence
         type="fractalNoise"
         numOctaves="3"
         baseFrequency="1"
         seed="0"
         result="result0"
         id="feTurbulence14146" />
      <feColorMatrix
         result="result4"
         values="0"
         type="saturate"
         id="feColorMatrix14148" />
      <feComposite
         in="SourceGraphic"
         in2="result4"
         operator="arithmetic"
         k1="1.25"
         k2="0.5"
         k3="0.5"
         result="result2"
         id="feComposite14150" />
      <feBlend
         result="result5"
         mode="normal"
         in="result2"
         in2="SourceGraphic"
         id="feBlend14152" />
      <feComposite
         in="result5"
         in2="SourceGraphic"
         operator="in"
         result="fbSourceGraphic"
         id="feComposite14154" />
      <feColorMatrix
         result="fbSourceGraphicAlpha"
         in="fbSourceGraphic"
         values="0 0 0 -1 0 0 0 0 -1 0 0 0 0 -1 0 0 0 0 1 0"
         id="feColorMatrix15295" />
      <feFlood
         id="feFlood15297"
         flood-opacity="0.498039"
         flood-color="rgb(0,0,0)"
         result="flood"
         in="fbSourceGraphic" />
      <feComposite
         in2="fbSourceGraphic"
         id="feComposite15299"
         in="flood"
         operator="in"
         result="composite1" />
      <feGaussianBlur
         id="feGaussianBlur15301"
         in="composite1"
         stdDeviation="32.6121"
         result="blur" />
      <feOffset
         id="feOffset15303"
         dx="0"
         dy="0"
         result="offset" />
      <feComposite
         in2="offset"
         id="feComposite15305"
         in="fbSourceGraphic"
         operator="over"
         result="composite2" />
    </filter>
  </defs>
  <g
     inkscape:groupmode="layer"
     id="layer4"
     inkscape:label="Shadow"
     sodipodi:insensitive="true">
    <path
       d="m 924,355.412 c 0,-9.782 0,-18.35 -0.056,-28.133 -0.049,-8.241 -0.144,-16.48 -0.368,-24.716 -0.484,-17.954 -1.543,-36.061 -4.736,-53.813 -3.238,-18.01 -8.526,-34.77 -16.859,-51.133 a 171.963,171.963 0 0 0 -31.661,-43.559 172.06,172.06 0 0 0 -43.574,-31.64 c -16.381,-8.335 -33.159,-13.621 -51.188,-16.858 -17.755,-3.188 -35.867,-4.245 -53.82,-4.73 -8.243,-0.223 -16.485,-0.317 -24.73,-0.368 -9.788,-0.06 -19.576,-0.055 -29.364,-0.055 L 553.997,100 h -84.999 l -111.637,0.407 c -9.807,0 -19.614,-0.005 -29.421,0.055 -8.262,0.051 -16.52,0.145 -24.778,0.368 -17.995,0.485 -36.148,1.543 -53.945,4.735 -18.053,3.236 -34.857,8.52 -51.259,16.849 a 172.405,172.405 0 0 0 -43.667,31.644 171.994,171.994 0 0 0 -31.718,43.551 c -8.356,16.372 -13.654,33.143 -16.9,51.162 -3.196,17.746 -4.255,35.846 -4.742,53.792 -0.222,8.237 -0.318,16.476 -0.368,24.716 -0.06,9.784 -0.563,21.937 -0.563,31.72 v 195.999 l 0.508,112.429 c 0,9.796 -0.004,19.592 0.055,29.388 0.05,8.252 0.146,16.502 0.369,24.751 0.486,17.976 1.547,36.109 4.746,53.886 3.245,18.032 8.542,34.818 16.891,51.201 a 172.24,172.24 0 0 0 31.722,43.619 172.444,172.444 0 0 0 43.659,31.684 c 16.412,8.346 33.224,13.639 51.288,16.88 17.789,3.193 35.936,4.252 53.924,4.737 8.258,0.223 16.517,0.318 24.779,0.368 9.807,0.059 19.613,0.059 29.42,0.059 h 310.283 c 9.788,0 19.576,0 29.364,-0.059 8.245,-0.05 16.487,-0.145 24.73,-0.368 17.96,-0.486 36.078,-1.546 53.841,-4.741 18.018,-3.241 34.788,-8.532 51.159,-16.873 a 172.004,172.004 0 0 0 43.582,-31.687 172.23,172.23 0 0 0 31.659,-43.612 c 8.337,-16.391 13.625,-33.184 16.865,-51.229 3.19,-17.77 4.248,-35.896 4.733,-53.865 0.223,-8.25 0.318,-16.5 0.367,-24.751 C 924,687.019 924,677.223 924,667.427 V 355.412 Z"
       fill="rgba(0,0,0,0.3)"
       filter="url(#blur_shadow)"
       transform="translate(0,10)"
       id="path66" />
    <path
       d="m 924,355.412 c 0,-9.782 0,-18.35 -0.056,-28.133 -0.049,-8.241 -0.144,-16.48 -0.368,-24.716 -0.484,-17.954 -1.543,-36.061 -4.736,-53.813 -3.238,-18.01 -8.526,-34.77 -16.859,-51.133 a 171.963,171.963 0 0 0 -31.661,-43.559 172.06,172.06 0 0 0 -43.574,-31.64 c -16.381,-8.335 -33.159,-13.621 -51.188,-16.858 -17.755,-3.188 -35.867,-4.245 -53.82,-4.73 -8.243,-0.223 -16.485,-0.317 -24.73,-0.368 -9.788,-0.06 -19.576,-0.055 -29.364,-0.055 L 553.997,100 h -84.999 l -111.637,0.407 c -9.807,0 -19.614,-0.005 -29.421,0.055 -8.262,0.051 -16.52,0.145 -24.778,0.368 -17.995,0.485 -36.148,1.543 -53.945,4.735 -18.053,3.236 -34.857,8.52 -51.259,16.849 a 172.405,172.405 0 0 0 -43.667,31.644 171.994,171.994 0 0 0 -31.718,43.551 c -8.356,16.372 -13.654,33.143 -16.9,51.162 -3.196,17.746 -4.255,35.846 -4.742,53.792 -0.222,8.237 -0.318,16.476 -0.368,24.716 -0.06,9.784 -0.563,21.937 -0.563,31.72 v 195.999 l 0.508,112.429 c 0,9.796 -0.004,19.592 0.055,29.388 0.05,8.252 0.146,16.502 0.369,24.751 0.486,17.976 1.547,36.109 4.746,53.886 3.245,18.032 8.542,34.818 16.891,51.201 a 172.24,172.24 0 0 0 31.722,43.619 172.444,172.444 0 0 0 43.659,31.684 c 16.412,8.346 33.224,13.639 51.288,16.88 17.789,3.193 35.936,4.252 53.924,4.737 8.258,0.223 16.517,0.318 24.779,0.368 9.807,0.059 19.613,0.059 29.42,0.059 h 310.283 c 9.788,0 19.576,0 29.364,-0.059 8.245,-0.05 16.487,-0.145 24.73,-0.368 17.96,-0.486 36.078,-1.546 53.841,-4.741 18.018,-3.241 34.788,-8.532 51.159,-16.873 a 172.004,172.004 0 0 0 43.582,-31.687 172.23,172.23 0 0 0 31.659,-43.612 c 8.337,-16.391 13.625,-33.184 16.865,-51.229 3.19,-17.77 4.248,-35.896 4.733,-53.865 0.223,-8.25 0.318,-16.5 0.367,-24.751 C 924,687.019 924,677.223 924,667.427 Z"
       fill="#ffffff"
       id="path68"
       style="display:none" />
  </g>
  <g
     inkscape:groupmode="layer"
     id="layer3"
     inkscape:label="Background"
     style="display:inline">
    <path
       id="path2131"
       style="fill:url(#radialGradient4977);fill-opacity:1"
       d="m 342.6543,102.00781 c -18.77367,0.0506 -37.54997,0.0846 -56.28321,1.08789 -8.22867,0.45702 -16.56724,1.13871 -24.7872,2.20272 -1.97432,0.24864 -3.86207,0.52293 -5.86885,0.82408 -8.14578,1.23339 -16.22696,2.90477 -24.17402,5.08062 -5.59958,1.54724 -11.38212,3.4346 -16.79824,5.53729 -4.18805,1.61952 -8.3139,3.40183 -12.31497,5.32258 -3.27791,1.57126 -6.61228,3.33694 -9.83272,5.13584 -4.52316,2.54379 -8.92744,5.29516 -13.20113,8.23869 -3.91457,2.70862 -7.72667,5.56911 -11.40183,8.59502 -4.05139,3.32119 -7.93604,6.84068 -11.67004,10.51449 -3.37698,3.35709 -6.6316,6.8405 -9.72066,10.46465 -3.45436,4.01887 -6.68181,8.22616 -9.7589,12.53941 -3.13702,4.51249 -6.11726,9.13729 -8.81484,13.92731 -3.77978,6.61591 -7.10684,13.49063 -9.94957,20.56066 -0.88419,2.20564 -1.81866,4.66355 -2.62001,6.95157 -4.57002,12.90065 -7.52819,26.32985 -9.38389,39.87656 -0.21585,1.63758 -0.46661,3.49306 -0.65976,5.21898 -2.16764,18.58803 -2.57012,37.27234 -2.79177,55.95527 -0.17838,17.81297 -0.0581,35.62716 -0.19122,53.44042 -0.13924,32.87663 -0.31561,65.75318 -0.43147,98.62986 0.006,64.79673 -0.0115,129.59352 0.009,194.39021 0.083,11.73615 0.5862,23.46565 0.59344,35.20299 0.11293,12.16813 0.33657,24.37289 0.99755,36.46891 0.49107,8.84863 1.25147,17.79038 2.45271,26.62628 0.31967,2.26551 0.68412,4.74377 1.07291,7.08341 1.81454,10.88232 4.4149,21.64755 8.04469,32.07156 1.94387,5.58187 4.23181,11.22089 6.78212,16.62441 1.68295,3.61981 3.67112,7.35935 5.66459,10.95348 2.57062,4.55185 5.3393,8.99046 8.31326,13.28995 2.72461,3.93306 5.60495,7.7609 8.65302,11.44928 3.32429,4.04289 6.84779,7.91776 10.52644,11.64053 3.31445,3.32245 6.7516,6.52531 10.32308,9.57011 3.95082,3.3778 8.06453,6.56099 12.3032,9.56908 3.88247,2.72973 7.87003,5.31355 11.96409,7.71479 9.13244,5.37401 18.75966,9.90851 28.73476,13.4869 3.27342,1.17741 6.40943,2.19987 9.76242,3.19368 7.80455,2.3108 15.86556,4.10752 23.94939,5.46261 2.34445,0.39822 5.01616,0.78912 7.37324,1.1233 20.65769,2.79293 41.42686,3.21393 62.24024,3.45703 18.06936,0.15753 36.13963,0.0599 54.20925,0.17121 32.41229,0.10797 64.8245,0.25603 97.23684,0.33856 28.59672,-0.0114 57.19353,0.0231 85.7902,-0.0179 37.6495,-0.12561 75.29893,-0.28724 112.94847,-0.3901 20.10996,-0.0233 40.25397,0.0422 60.32644,-0.78662 10.22373,-0.44057 20.45018,-1.15672 30.66995,-2.4652 13.9819,-1.77062 28.05284,-4.74102 41.45416,-9.4106 4.73125,-1.64955 9.54415,-3.55132 14.10464,-5.61419 6.40133,-2.87374 12.6013,-6.18702 18.60419,-9.81603 4.47026,-2.72581 8.81331,-5.65616 13.01756,-8.77655 3.77964,-2.80853 7.44415,-5.77389 10.97586,-8.88855 3.93759,-3.46423 7.70196,-7.12103 11.30856,-10.92811 3.86407,-4.1181 7.54922,-8.40675 10.98342,-12.89098 2.98251,-3.83794 5.76185,-7.83202 8.40043,-11.91301 2.81717,-4.40106 5.43874,-8.92569 7.8445,-13.56455 2.28365,-4.32306 4.31615,-8.77607 6.19779,-13.28764 2.24052,-5.42921 4.26966,-11.14842 5.96243,-16.84839 1.69591,-5.67858 3.17359,-11.75437 4.36154,-17.72703 0.90147,-4.5519 1.64545,-9.13369 2.28541,-13.72927 0.18103,-1.38911 0.40295,-3.01169 0.57266,-4.49442 0.95364,-7.93235 1.57218,-15.96546 1.97677,-23.85344 1.04528,-20.81496 0.97175,-41.6905 1.00613,-62.54706 0.003,-109.82604 0.009,-219.65208 -0.003,-329.47812 -0.0347,-18.79002 -0.0435,-37.59463 -0.95139,-56.34579 -0.40706,-8.11472 -1.01283,-16.33412 -1.98398,-24.48669 -1.88416,-16.096 -5.28437,-32.25154 -10.98856,-47.53259 -1.625,-4.37584 -3.43455,-8.6901 -5.39062,-12.86989 -2.61184,-5.57995 -5.5501,-11.00541 -8.73385,-16.27846 -2.72706,-4.47296 -5.64938,-8.82519 -8.77357,-13.03063 -2.83793,-3.82871 -5.8421,-7.53528 -8.99188,-11.11168 -3.43528,-3.8969 -7.0492,-7.63387 -10.82228,-11.20463 -3.41334,-3.21901 -6.95631,-6.30317 -10.62334,-9.2301 -4.10564,-3.28144 -8.36724,-6.36301 -12.75363,-9.25791 -4.01464,-2.62339 -8.12577,-5.10449 -12.34832,-7.37935 -11.00849,-6.02135 -22.79453,-10.75548 -34.80798,-14.18635 -7.81291,-2.23161 -15.91942,-3.97998 -24.00646,-5.26534 -1.85559,-0.30719 -3.71685,-0.56141 -5.52284,-0.8245 -20.57392,-2.79155 -41.33367,-3.21813 -62.05466,-3.46214 -23.83209,-0.17931 -47.66515,-0.0791 -71.49768,-0.10622 -96.36276,0.005 -192.72553,-0.0102 -289.08828,0.008 z" />
  </g>
  <g
     inkscape:groupmode="layer"
     id="layer1"
     inkscape:label="Border"
     style="fill:#502d16">
    <path
       id="path255"
       d="m 468.99805,100 -111.63672,0.40625 c -9.80699,0 -19.61489,-0.003 -29.42188,0.0566 -8.26199,0.051 -16.51935,0.14419 -24.77734,0.36719 -17.99498,0.485 -36.14833,1.54238 -53.94531,4.73437 -18.05299,3.236 -34.85779,8.52062 -51.25977,16.84961 a 172.405,172.405 0 0 0 -43.66601,31.64453 171.994,171.994 0 0 0 -31.71875,43.55079 c -8.356,16.37198 -13.65245,33.14312 -16.89844,51.1621 -3.196,17.74599 -4.25519,35.84504 -4.74219,53.79102 -0.222,8.23699 -0.31914,16.47681 -0.36914,24.7168 -0.06,9.78399 -0.5625,21.93576 -0.5625,31.71875 v 196 l 0.50781,112.42968 c 0,9.79599 -0.004,19.59073 0.0547,29.38672 0.05,8.25199 0.14614,16.50296 0.36914,24.75196 0.486,17.97598 1.5471,36.10778 4.74609,53.88476 3.245,18.03198 8.54164,34.81819 16.89063,51.20117 a 172.24,172.24 0 0 0 31.72266,43.61914 172.444,172.444 0 0 0 43.6582,31.6836 c 16.41198,8.34599 33.22508,13.63986 51.28906,16.88086 17.78898,3.19299 35.93585,4.25133 53.92383,4.73633 8.25799,0.223 16.5173,0.31914 24.7793,0.36914 9.80699,0.059 19.61293,0.0586 29.41992,0.0586 h 310.2832 c 9.78799,0 19.57529,4.1e-4 29.36328,-0.0586 8.24499,-0.05 16.48748,-0.14614 24.73047,-0.36914 17.95998,-0.486 36.07686,-1.54524 53.83984,-4.74024 18.01799,-3.241 34.78918,-8.53205 51.16016,-16.87305 a 172.004,172.004 0 0 0 43.58203,-31.6875 172.23,172.23 0 0 0 31.65821,-43.61132 c 8.33699,-16.39099 13.62523,-33.18354 16.86523,-51.22852 3.19,-17.76998 4.24742,-35.89625 4.73242,-53.86523 0.223,-8.25 0.31819,-16.50097 0.36719,-24.75196 0.056,-9.79599 0.0566,-19.59073 0.0566,-29.38672 V 355.41211 c 0,-9.78199 -6.4e-4,-18.34982 -0.0566,-28.13281 -0.049,-8.24099 -0.14319,-16.48081 -0.36719,-24.7168 -0.484,-17.95398 -1.54333,-36.06052 -4.73633,-53.8125 -3.23799,-18.00998 -8.52638,-34.76983 -16.85937,-51.13281 a 171.963,171.963 0 0 0 -31.66016,-43.5586 172.06,172.06 0 0 0 -43.57422,-31.64062 c -16.38098,-8.33499 -33.15851,-13.62043 -51.1875,-16.85742 -17.75498,-3.188 -35.86733,-4.24547 -53.82031,-4.73047 -8.24299,-0.223 -16.48548,-0.31619 -24.73047,-0.36719 -9.78799,-0.06 -19.57529,-0.0566 -29.36328,-0.0566 L 553.99609,100 Z m 13.45507,52.03516 c 58.16091,-0.0449 116.32185,0.14934 174.48243,0.32422 23.07551,0.10586 46.21996,0.0134 69.24804,0.7246 4.09023,0.13313 8.25928,0.32301 12.24414,0.56446 12.16246,0.75045 24.40959,2.0875 36.22461,4.84179 1.19231,0.28232 2.53661,0.61637 3.62696,0.90039 16.01855,4.17577 31.21825,11.56139 44.25781,21.77735 1.24421,0.96846 2.57134,2.05481 3.70703,3.01758 3.29622,2.79252 6.54422,5.86282 9.56055,9.05078 3.08362,3.2593 6.22068,6.98407 9.00195,10.70312 2.21455,2.97364 4.45102,6.26024 6.43359,9.51367 2.21638,3.6475 4.37069,7.63966 6.2168,11.60157 0.55952,1.21279 1.03391,2.26202 1.54297,3.45508 7.19944,16.63542 10.08608,34.85502 11.44922,52.7539 0.47047,6.3397 0.76754,12.59458 0.98633,18.94727 0.30991,10.70971 0.41804,21.57874 0.43164,32.35156 0.1188,105.92184 0.085,211.84373 0.082,317.76562 -0.0566,25.15853 0.17773,50.40803 -0.61328,75.50586 -0.38474,11.56452 -1.10056,23.13739 -2.79297,34.5918 -1.45287,9.91075 -3.65174,19.74021 -7.10547,29.15625 -1.16742,3.171 -2.5664,6.61335 -4.0625,9.78711 -5.86715,12.58387 -13.93197,24.13733 -23.75195,33.95508 -1.27867,1.28244 -2.68551,2.61867 -3.95508,3.79101 -5.98776,5.48109 -12.52097,10.36565 -19.48047,14.54493 -1.48253,0.88616 -3.09574,1.81061 -4.54102,2.59179 -2.31591,1.24865 -4.61064,2.40373 -7.03515,3.51367 -1.67366,0.77246 -3.48927,1.54203 -5.1211,2.20508 -9.39069,3.75359 -19.22908,6.31747 -29.19531,7.98438 -1.4672,0.2474 -3.08481,0.47975 -4.46484,0.69336 -6.82141,0.97305 -13.68532,1.62808 -20.56055,2.07226 -4.93641,0.31074 -10.04624,0.53813 -15.05469,0.70118 -12.19426,0.36524 -24.53004,0.42713 -36.78125,0.45703 -103.11887,0.0651 -206.23851,0.10983 -309.35742,0.082 -25.18665,-0.0394 -50.47353,0.12867 -75.5957,-0.51367 -8.98327,-0.27386 -17.96697,-0.68902 -26.91602,-1.53907 -2.7859,-0.26746 -5.78452,-0.61509 -8.54297,-0.97851 -3.6658,-0.49702 -7.1905,-1.05594 -10.81445,-1.75391 -9.56531,-1.76246 -19.03774,-4.55873 -27.98633,-8.48047 -0.58402,-0.24726 -1.3979,-0.61986 -1.9707,-0.87695 -6.06902,-2.77427 -11.91701,-6.03854 -17.44727,-9.77344 -0.86197,-0.57876 -1.85523,-1.27387 -2.61328,-1.81445 -6.61142,-4.74653 -12.75536,-10.14628 -18.29101,-16.11328 -0.82316,-0.86567 -1.7121,-1.88779 -2.43946,-2.70313 -8.17403,-9.31388 -14.84349,-19.93254 -19.76367,-31.30273 -0.94266,-2.17893 -1.75688,-4.22831 -2.57226,-6.44922 -1.38359,-3.74808 -2.58402,-7.69017 -3.57813,-11.48047 -1.80497,-6.83871 -3.08182,-13.80919 -4.00976,-20.81836 -2.41047,-18.48763 -2.63402,-37.03679 -2.81836,-55.65625 -0.52642,-74.99324 -0.63785,-149.98951 -0.68555,-224.98437 -0.007,-32.1126 -0.0246,-64.22533 -0.0254,-96.33789 -4e-5,-18.21717 0.26455,-36.43213 0.55859,-54.64649 0.27757,-14.66561 0.37717,-29.26402 1.45899,-43.89258 0.096,-1.3109 0.23764,-2.88865 0.33594,-4.17968 0.32363,-3.55297 0.67477,-7.04396 1.14453,-10.60938 0.50175,-3.90706 1.17967,-8.07104 1.93554,-11.92773 1.3589,-6.87817 3.16708,-13.67368 5.58008,-20.25977 0.40235,-1.09711 0.87883,-2.34327 1.27149,-3.33398 3.16514,-7.96896 7.19149,-15.59368 11.97851,-22.70704 0.49139,-0.74747 1.12029,-1.61634 1.55664,-2.25976 10.37666,-14.64204 24.08276,-26.89024 39.7461,-35.64063 2.78345,-1.5413 5.89942,-3.13597 8.91406,-4.48828 16.41062,-7.53414 34.50982,-10.70611 52.33594,-12.23828 2.45719,-0.21967 5.03017,-0.3909 7.41992,-0.55664 8.56303,-0.53442 17.08455,-0.75433 25.65234,-0.92578 43.57225,-0.37165 87.14707,-0.45501 130.7207,-0.57617 13.27943,-0.036 26.55848,-0.0714 39.83789,-0.10742 z"
       style="fill:#140c06;stroke:none;filter:url(#filter14156);fill-opacity:1"
       mask="url(#mask7506)" />
  </g>
  <g
     inkscape:groupmode="layer"
     id="layer2"
     inkscape:label="Label">
    <text
       xml:space="preserve"
       style="font-size:266.667px;line-height:1em;text-align:center;text-anchor:middle;white-space:pre;inline-size:499.307;display:inline;fill:#c83737;fill-opacity:0.821277;stroke:none;filter:url(#filter7074)"
       x="457.8414"
       y="334.10168"
       id="text345"
       transform="translate(53.625802,136.35187)"><tspan
         x="457.8414"
         y="334.10168"
         id="tspan18314"><tspan
           style="font-weight:bold;font-family:Futura;-inkscape-font-specification:'Futura Bold'"
           id="tspan18312">ON
</tspan></tspan><tspan
         x="457.8414"
         y="611.8615"
         id="tspan18318"><tspan
           style="font-weight:bold;font-family:Futura;-inkscape-font-specification:'Futura Bold'"
           id="tspan18316">AIR</tspan></tspan></text>
  </g>
</svg>
